<svg width="192" height="203" viewBox="0 0 192 203" fill="none" xmlns="http://www.w3.org/2000/svg">
<path fill-rule="evenodd" clip-rule="evenodd" d="M12.5128 8.74705C12.5128 6.664 12.5128 4.5822 12.5128 2.49916C10.0103 2.49916 7.5077 2.49916 5.00513 2.49916C5.4631 1.00591 6.50542 0.173691 8.13334 0C10.7323 0.646032 13.2348 1.4795 15.6411 2.49916C20.7951 1.0509 26.0092 1.0509 31.2821 2.49916C31.4949 4.1511 31.0782 5.60936 30.0308 6.87268C23.9721 7.73739 18.1324 8.36218 12.5128 8.74705Z" fill="#262E34"/>
<path fill-rule="evenodd" clip-rule="evenodd" d="M185.19 0C191.842 2.85529 193.302 7.02013 189.57 12.4958C189.361 14.5788 189.153 16.6606 188.944 18.7437C189.377 29.4338 189.377 40.2639 188.944 51.2327C186.503 51.5739 184.626 50.7416 183.313 48.7336C183.088 36.7664 182.462 24.8954 181.436 13.1206C182.494 11.1737 181.66 9.92415 178.934 9.37184C175.973 8.66958 173.054 8.87701 170.175 9.99663C166.865 9.23689 163.528 8.6121 160.164 8.12226C158.73 4.92709 159.982 3.2614 163.918 3.12395C169.315 3.43009 174.738 3.43009 180.185 3.12395C181.884 1.95684 183.553 0.914692 185.19 0Z" fill="#1A1E21"/>
<path fill-rule="evenodd" clip-rule="evenodd" d="M127.631 146.201C125.679 144.131 124.428 141.632 123.877 138.703C123.877 132.039 123.877 125.374 123.877 118.71C124.524 83.4781 124.942 48.0725 125.128 12.4957C128.842 5.08448 134.264 3.62747 141.395 8.12221C145.974 13.4279 148.06 19.6758 147.652 26.8659C146.573 59.9735 146.364 93.0873 147.026 126.207C142.868 135.149 136.403 141.815 127.631 146.201Z" fill="#E3241E"/>
<path fill-rule="evenodd" clip-rule="evenodd" d="M5.00508 2.49915C7.50765 2.49915 10.0102 2.49915 12.5128 2.49915C12.5128 4.58219 12.5128 6.66399 12.5128 8.74704C11.7408 8.88574 11.1151 9.30185 10.6359 9.99662C10.3718 23.7995 9.7462 37.5448 8.75894 51.2327C6.88826 50.6217 5.21905 49.7894 3.75379 48.7336C2.86288 35.0594 2.02827 21.3141 1.25122 7.49746C1.40138 4.88834 2.65266 3.2214 5.00508 2.49915Z" fill="#1A1D21"/>
<path fill-rule="evenodd" clip-rule="evenodd" d="M77.5797 11.2462C86.4826 10.7152 95.2416 11.34 103.857 13.1206C109.506 21.1441 108.255 27.8082 100.103 33.1139C71.0255 32.9439 49.128 45.231 34.4104 69.9764C27.9512 85.1801 25.8653 101.008 28.1539 117.46C30.3287 127.618 33.8736 137.198 38.7899 146.201C38.7198 149.463 37.4685 152.171 35.036 154.323C31.5349 156.715 27.781 157.964 23.7744 158.072C19.3336 153.608 15.7875 148.401 13.1385 142.452C-5.0627 91.6041 8.0758 50.9928 52.554 20.6181C60.8938 17.0605 69.2362 13.9366 77.5797 11.2462Z" fill="#E32A21"/>
<path fill-rule="evenodd" clip-rule="evenodd" d="M125.128 12.4958C124.942 48.0726 124.524 83.4782 123.877 118.71C123.382 84.1354 123.173 49.5633 123.252 14.995C123.599 13.8504 124.225 13.0182 125.128 12.4958Z" fill="#EAA59D"/>
<path fill-rule="evenodd" clip-rule="evenodd" d="M91.3439 47.4839C98.1021 46.0369 103.315 48.12 106.985 53.7318C107.82 87.8866 107.82 122.043 106.985 156.197C99.8989 159.44 92.6002 159.232 85.0874 155.572C84.9673 122.108 85.175 88.1602 85.7131 53.7318C86.9956 50.999 88.8726 48.916 91.3439 47.4839Z" fill="#6EBE8C"/>
<path fill-rule="evenodd" clip-rule="evenodd" d="M3.75373 48.7334C5.21898 49.7893 6.8882 50.6215 8.75887 51.2326C6.18998 54.7114 4.10534 54.2953 2.50244 49.983C2.6576 49.2245 3.07428 48.8084 3.75373 48.7334Z" fill="#708F87"/>
<path fill-rule="evenodd" clip-rule="evenodd" d="M165.17 49.983C172.28 51.0364 177.494 54.7852 180.811 61.2292C198.21 105.287 188.825 144.231 152.657 178.065C125.295 198.487 96.0989 203.069 65.067 191.81C58.4827 188.518 52.2263 184.769 46.2977 180.564C41.7155 175.117 41.0899 169.494 44.4208 163.695C47.5402 160.981 51.0851 159.938 55.0567 160.571C91.0374 182.332 123.362 177.959 152.031 147.45C158.773 137.197 162.944 126.367 164.544 114.961C166.36 97.6869 164.065 81.2337 157.662 65.6028C158.43 64.1907 158.43 62.5251 157.662 60.6045C157.844 59.0725 158.26 57.6142 158.913 56.2309C161.292 54.3491 163.378 52.266 165.17 49.983Z" fill="#71C08E"/>
<path fill-rule="evenodd" clip-rule="evenodd" d="M52.5539 67.4773C56.7457 67.2711 60.9162 67.4798 65.0667 68.1021C66.5695 69.2304 67.6131 70.6874 68.1949 72.4756C68.4339 96.6649 69.0596 120.823 70.0719 144.951C70.1545 147.158 69.1109 148.407 66.9437 148.7C58.6176 143.717 51.9432 137.053 46.9231 128.707C45.7969 113.302 45.3802 97.8895 45.6718 82.4722C46.4151 76.6779 48.7099 71.6796 52.5539 67.4773Z" fill="#FCDC88"/>
<path fill-rule="evenodd" clip-rule="evenodd" d="M123.877 138.703C124.428 141.632 125.679 144.131 127.631 146.201C127.242 147.423 126.407 148.256 125.128 148.7C123.902 145.468 123.486 142.136 123.877 138.703Z" fill="#EFAF98"/>
<path fill-rule="evenodd" clip-rule="evenodd" d="M3.75386 156.197C5.81097 155.93 7.6879 156.347 9.38465 157.447C9.80132 168.693 10.2193 179.939 10.6359 191.186C18.25 192.2 25.9667 192.825 33.7847 193.06C37.4335 193.121 38.6848 194.579 37.5386 197.433C35.6729 198.363 33.796 199.195 31.9078 199.933C25.7064 200.105 19.659 199.688 13.7641 198.683C7.34004 202.808 2.75158 201.351 0 194.31C0.783305 193.372 1.40895 192.33 1.87693 191.186C2.4325 179.232 3.05814 167.569 3.75386 156.197Z" fill="#1E2123"/>
<path fill-rule="evenodd" clip-rule="evenodd" d="M157.662 198.683C156.744 197.174 156.327 195.508 156.411 193.685C164.559 193.725 172.9 193.309 181.437 192.435C181.095 180.753 181.721 169.091 183.314 157.447C185.01 156.347 186.887 155.93 188.944 156.197C189.564 169.554 189.98 182.467 190.196 194.934C188.986 197.596 187.525 200.095 185.816 202.432C176.607 200.327 167.222 199.078 157.662 198.683Z" fill="#191B1D"/>
<path fill-rule="evenodd" clip-rule="evenodd" d="M156.411 193.685C156.327 195.508 156.744 197.173 157.662 198.683C156.303 198.533 155.469 197.699 155.16 196.184C155.213 195.039 155.63 194.206 156.411 193.685Z" fill="#747371"/>
</svg>
